<svg width="50" height="50" viewBox="0 0 50 50" fill="none" xmlns="http://www.w3.org/2000/svg">
<g clip-path="url(#clip0_1271_794)">
<circle cx="25" cy="25" r="25" fill="white"/>
<path d="M32.2918 16.6667C31.5974 13.8889 29.1668 12.5 25.0002 12.5C18.7502 12.5 17.7085 16.5761 17.7085 18.75C17.7085 27.3757 32.2918 22.8436 32.2918 31.25C32.2918 33.4239 31.2502 37.5 25.0002 37.5C20.8335 37.5 18.4029 36.1111 17.7085 33.3333" stroke="black" stroke-width="4.5" stroke-linecap="round" stroke-linejoin="round"/>
<path d="M22.5 40.4075C22.5 40.4075 23.875 40.625 25 40.625C26.125 40.625 27.5 40.4075 27.5 40.4075V42.9075C27.5 42.9075 25.4167 46.2449 25 46.2449C24.5833 46.2449 22.5 42.9075 22.5 42.9075V40.4075Z" fill="black" stroke="black" stroke-width="0.25"/>
<path d="M27.799 3.41227L28.2157 9.66227C28.2157 9.66227 26.1323 9.24561 25.299 9.24561C24.4657 9.24561 22.3823 9.66227 22.3823 9.66227L22.799 3.41227C22.799 3.41227 24.049 2.99561 25.299 2.99561C26.549 2.99561 27.799 3.41227 27.799 3.41227Z" fill="black" stroke="black" stroke-width="0.25"/>
</g>
<defs>
<clipPath id="clip0_1271_794">
<rect width="50" height="50" fill="white"/>
</clipPath>
</defs>
</svg>
